<?xml version="1.0" standalone="no"?>
<!DOCTYPE svg PUBLIC "-//W3C//DTD SVG 20010904//EN"
 "http://www.w3.org/TR/2001/REC-SVG-20010904/DTD/svg10.dtd">
<svg version="1.0" xmlns="http://www.w3.org/2000/svg"
 width="256.000000pt" height="222.000000pt" viewBox="0 0 256.000000 222.000000"
 preserveAspectRatio="xMidYMid meet">

<g transform="translate(0.000000,222.000000) scale(0.100000,-0.100000)"
fill="#000000" stroke="none">
<path d="M825 2163 c-366 -78 -669 -417 -738 -829 -11 -64 -17 -80 -33 -83
-10 -1 -27 -10 -36 -19 -16 -13 -18 -35 -18 -177 0 -179 4 -190 64 -197 27 -3
31 -9 62 -100 43 -130 114 -262 194 -361 163 -203 433 -337 680 -337 106 0
252 32 332 73 66 34 67 34 80 15 13 -20 15 -20 46 -4 l32 17 0 -36 0 -35 85 0
85 0 0 30 c0 34 2 35 34 15 23 -15 24 -14 65 54 22 38 41 74 41 80 0 6 -11 17
-25 23 -14 6 -25 14 -25 17 0 3 16 17 35 30 l35 23 -42 59 c-56 80 -61 84 -92
64 -26 -17 -26 -17 -26 14 l0 31 -85 0 -85 0 0 -30 c0 -34 -6 -37 -32 -13 -10
9 -19 14 -21 12 -2 -2 -26 -34 -55 -71 l-52 -67 31 -24 31 -24 -26 -17 c-22
-14 -25 -20 -15 -37 16 -31 0 -43 -109 -80 -91 -31 -105 -33 -237 -34 -120 0
-151 3 -215 23 -253 80 -444 259 -560 529 -52 122 -57 151 -31 169 20 14 21
24 21 188 0 181 -2 189 -45 198 -24 4 -23 35 6 149 69 276 249 508 484 623
119 59 205 79 335 79 109 0 190 -15 288 -54 45 -19 52 -25 52 -49 0 -42 9 -59
41 -75 63 -33 114 -5 138 74 25 85 -40 150 -115 115 -31 -15 -36 -14 -96 9
-139 56 -335 72 -483 40z m-727 -1110 c-3 -124 -5 -148 -18 -148 -13 0 -15 24
-18 148 -2 143 -2 147 18 147 20 0 20 -4 18 -147z m1527 -706 c21 -30 19 -50
-9 -76 -30 -29 -63 -24 -89 11 -17 23 -19 31 -9 53 21 46 79 52 107 12z"/>
<path d="M2055 1551 c-3 -6 -39 -26 -79 -45 -123 -60 -200 -165 -233 -319 -45
-216 75 -460 256 -522 24 -8 49 -23 57 -32 10 -14 17 -16 31 -7 10 6 18 20 18
30 0 16 -7 19 -38 17 -53 -3 -122 31 -183 92 -174 173 -177 465 -7 646 51 54
160 116 177 99 13 -13 43 -13 51 0 11 18 -6 50 -25 50 -10 0 -21 -4 -25 -9z"/>
<path d="M2146 1544 c-10 -27 13 -45 49 -38 91 17 246 -134 290 -283 6 -21 3
-23 -39 -23 -44 0 -46 1 -64 44 -25 56 -85 122 -136 149 -32 17 -58 22 -121
22 -69 0 -86 -4 -126 -27 -58 -34 -94 -76 -128 -148 -22 -47 -26 -69 -26 -150
0 -77 4 -104 22 -143 34 -72 75 -120 135 -152 44 -24 65 -29 123 -29 118 0
207 61 257 174 21 49 23 50 66 50 43 0 44 -1 37 -27 -25 -99 -125 -227 -210
-268 -22 -11 -60 -19 -85 -20 -37 0 -45 -3 -45 -19 0 -28 33 -45 48 -26 7 9
34 24 60 34 56 21 131 78 170 129 32 42 71 126 82 175 l7 32 -65 0 c-62 0 -65
-1 -72 -27 -15 -61 -83 -138 -150 -169 -137 -65 -297 16 -350 177 -25 75 -17
197 18 265 29 57 92 119 143 140 71 30 178 13 242 -36 36 -29 89 -106 97 -141
6 -28 8 -29 72 -29 l65 0 -7 33 c-12 60 -73 171 -121 220 -47 47 -132 97 -165
97 -9 0 -19 7 -23 15 -7 20 -42 19 -50 -1z"/>
<path d="M561 1516 c-6 -7 -9 -21 -5 -30 7 -18 49 -22 59 -6 8 14 632 14 640
0 3 -5 17 -10 31 -10 19 0 24 5 24 25 0 30 -25 43 -51 27 -24 -15 -649 -17
-649 -2 0 15 -36 12 -49 -4z"/>
<path d="M1409 1513 c-10 -11 -10 -19 -1 -34 17 -26 17 -731 0 -758 -23 -38
22 -72 51 -37 12 14 5 46 -10 46 -5 0 -9 156 -9 360 0 299 2 365 15 383 24 37
-18 74 -46 40z"/>
<path d="M1545 1520 c-3 -5 -17 -10 -31 -10 l-24 0 0 -405 c0 -399 0 -405 20
-405 11 0 29 -5 39 -12 26 -16 53 -3 49 24 -2 17 -11 24 -30 26 -16 2 -28 -1
-28 -7 0 -6 -9 -11 -20 -11 -20 0 -20 7 -20 385 0 378 0 385 20 385 11 0 20
-4 20 -9 0 -15 32 -22 46 -10 19 15 18 45 -2 53 -22 8 -32 8 -39 -4z"/>
<path d="M2002 1459 c-70 -27 -139 -98 -176 -180 -15 -35 -35 -78 -43 -96 -18
-37 -11 -66 14 -61 14 3 18 14 18 53 1 99 94 224 204 272 56 24 156 22 218 -6
69 -30 153 -118 153 -159 0 -30 14 -43 38 -35 19 7 14 32 -10 61 -78 89 -137
140 -183 155 -66 23 -167 21 -233 -4z"/>
<path d="M693 1459 c-18 -18 -3 -49 23 -49 12 0 26 5 29 10 3 6 44 10 91 10
l84 0 0 -268 c0 -181 -4 -272 -11 -279 -16 -16 -1 -53 20 -53 10 0 24 6 30 14
12 14 5 46 -10 46 -5 0 -9 122 -9 280 l0 280 -94 0 c-53 0 -98 4 -101 10 -8
13 -38 13 -52 -1z"/>
<path d="M1538 1429 c-22 -12 -23 -32 -3 -49 23 -19 22 -515 -1 -541 -31 -34
12 -77 44 -45 14 13 14 20 4 36 -17 27 -17 532 0 559 9 15 9 23 -1 35 -16 19
-20 19 -43 5z"/>
<path d="M568 1409 c-22 -12 -23 -32 -3 -49 13 -11 21 -10 48 4 26 14 53 17
142 14 l110 -3 3 -314 c2 -279 0 -316 -14 -332 -31 -34 12 -78 44 -45 14 14
15 20 4 37 -10 16 -13 96 -12 345 l0 324 -130 0 c-97 0 -136 4 -153 14 -16 11
-27 12 -39 5z"/>
<path d="M1260 1405 c-10 -12 -40 -15 -146 -15 l-134 0 0 -325 c0 -240 -3
-330 -12 -345 -10 -16 -10 -23 4 -36 9 -9 24 -14 32 -11 18 7 21 48 6 63 -7 7
-9 122 -8 325 l3 314 112 3 c91 2 118 -1 138 -14 14 -9 32 -14 40 -10 20 7 19
52 -1 60 -21 8 -20 8 -34 -9z"/>
<path d="M1777 1034 c-12 -13 -7 -42 8 -48 8 -3 15 -12 15 -19 0 -32 64 -138
106 -177 69 -63 123 -84 219 -84 118 0 167 27 283 157 39 44 41 67 7 67 -21 0
-25 -5 -25 -29 0 -40 -79 -122 -150 -155 -65 -31 -143 -34 -214 -10 -97 33
-206 168 -209 261 -2 36 -22 55 -40 37z"/>
</g>
</svg>
