<svg xmlns="http://www.w3.org/2000/svg" xmlns:xlink="http://www.w3.org/1999/xlink" width="500" zoomAndPan="magnify" viewBox="0 0 375 314.999992" height="420" preserveAspectRatio="xMidYMid meet" version="1.0"><defs><g/><clipPath id="313fc99646"><path d="M 154 95 L 221.199219 95 L 221.199219 206.929688 L 154 206.929688 Z M 154 95 " clip-rule="nonzero"/></clipPath></defs><rect x="-37.5" width="450" fill="#ffffff" y="-31.499999" height="377.99999" fill-opacity="1"/><rect x="-37.5" width="450" fill="#ffffff" y="-31.499999" height="377.99999" fill-opacity="1"/><path stroke-linecap="round" transform="matrix(0.75331, 0, 0, 0.75, 250.194276, 141.762295)" fill="none" stroke-linejoin="miter" d="M 12.000496 11.999232 L 83.580382 11.999232 " stroke="#edde07" stroke-width="24" stroke-opacity="1" stroke-miterlimit="4"/><path stroke-linecap="round" transform="matrix(0.751112, 0, 0, 0.75, 53.677597, 141.762295)" fill="none" stroke-linejoin="miter" d="M 12.000622 11.999232 L 82.859124 11.999232 " stroke="#edde07" stroke-width="24" stroke-opacity="1" stroke-miterlimit="4"/><path stroke-linecap="round" transform="matrix(0.678375, -0.316956, 0.317477, 0.679491, 242.947592, 110.760857)" fill="none" stroke-linejoin="miter" d="M 12.001825 11.998044 L 83.166915 12.000244 " stroke="#edde07" stroke-width="24" stroke-opacity="1" stroke-miterlimit="4"/><path stroke-linecap="round" transform="matrix(0.67728, 0.315821, -0.316964, 0.679731, 66.452909, 80.535616)" fill="none" stroke-linejoin="miter" d="M 11.999773 11.997504 L 83.346133 12.00116 " stroke="#edde07" stroke-width="24" stroke-opacity="1" stroke-miterlimit="4"/><path stroke-linecap="round" transform="matrix(0.480904, -0.573119, 0.574533, 0.482091, 220.342754, 84.696688)" fill="none" stroke-linejoin="miter" d="M 11.998682 12.000768 L 83.236206 11.999691 " stroke="#edde07" stroke-width="24" stroke-opacity="1" stroke-miterlimit="4"/><path stroke-linecap="round" transform="matrix(0.481299, 0.57359, -0.574533, 0.482091, 108.778401, 30.025197)" fill="none" stroke-linejoin="miter" d="M 12.00248 12.001092 L 83.162879 12.000103 " stroke="#edde07" stroke-width="24" stroke-opacity="1" stroke-miterlimit="4"/><path stroke-linecap="round" transform="matrix(0.000000000000001381, -0.751273, 0.75, 0.000000000000001378, 178.496477, 69.321711)" fill="none" stroke-linejoin="miter" d="M 12.002328 11.99949 L 70.871173 11.99949 " stroke="#edde07" stroke-width="24" stroke-opacity="1" stroke-miterlimit="4"/><g clip-path="url(#313fc99646)"><path fill="#0257a2" d="M 182.386719 206.339844 L 192.253906 206.339844 C 194.492188 206.339844 196.332031 204.5 196.332031 202.261719 L 196.332031 192.789062 L 198.4375 192.261719 C 215.148438 188.050781 221.199219 176.472656 221.199219 167.917969 C 221.199219 151.996094 207.515625 145.417969 194.097656 141.074219 C 181.464844 136.863281 177.515625 134.363281 177.515625 130.679688 C 177.515625 127.390625 181.332031 123.96875 190.015625 123.96875 C 199.492188 123.96875 205.542969 126.734375 208.042969 127.917969 C 208.570312 128.179688 209.226562 128.3125 209.753906 128.3125 C 211.332031 128.3125 212.78125 127.390625 213.4375 125.941406 L 217.386719 117.652344 C 217.910156 116.730469 217.910156 115.546875 217.515625 114.496094 C 217.121094 113.441406 216.332031 112.652344 215.410156 112.125 C 210.675781 109.890625 205.542969 108.441406 199.753906 107.785156 L 197.386719 107.523438 L 197.386719 99.101562 C 197.386719 96.863281 195.542969 95.019531 193.304688 95.019531 L 183.570312 95.019531 C 181.332031 95.019531 179.492188 96.863281 179.492188 99.101562 L 179.492188 108.3125 L 177.386719 108.835938 C 163.699219 112.257812 155.675781 120.941406 155.675781 131.996094 C 155.675781 146.601562 170.148438 153.179688 184.359375 157.65625 C 197.515625 161.867188 199.226562 165.679688 199.226562 168.707031 C 199.226562 173.445312 193.042969 176.867188 184.621094 176.867188 C 177.386719 176.867188 169.753906 175.023438 163.964844 171.996094 C 163.304688 171.734375 162.648438 171.472656 161.992188 171.472656 C 161.597656 171.472656 161.070312 171.601562 160.675781 171.734375 C 159.621094 172.128906 158.699219 172.917969 158.304688 173.972656 L 154.492188 182.390625 C 153.699219 184.367188 154.359375 186.601562 156.199219 187.65625 C 160.9375 190.417969 168.175781 192.523438 175.675781 193.3125 L 178.175781 193.578125 L 178.175781 202.261719 C 178.175781 204.5 180.015625 206.339844 182.386719 206.339844 Z M 182.386719 206.339844 " fill-opacity="1" fill-rule="nonzero"/></g><g fill="#0257a2" fill-opacity="1"><g transform="translate(17.104028, 307.21737)"><g><path d="M 15.78125 -16.046875 C 13.820312 -16.710938 12.046875 -17.390625 10.453125 -18.078125 C 8.859375 -18.765625 7.484375 -19.59375 6.328125 -20.5625 C 5.171875 -21.539062 4.269531 -22.707031 3.625 -24.0625 C 2.976562 -25.414062 2.65625 -27.070312 2.65625 -29.03125 C 2.65625 -32.800781 4.109375 -35.816406 7.015625 -38.078125 C 9.929688 -40.347656 14.003906 -41.484375 19.234375 -41.484375 C 21.148438 -41.484375 22.925781 -41.347656 24.5625 -41.078125 C 26.207031 -40.804688 27.617188 -40.394531 28.796875 -39.84375 C 29.972656 -39.289062 30.894531 -38.582031 31.5625 -37.71875 C 32.226562 -36.851562 32.5625 -35.84375 32.5625 -34.6875 C 32.5625 -33.53125 32.289062 -32.539062 31.75 -31.71875 C 31.21875 -30.90625 30.578125 -30.207031 29.828125 -29.625 C 28.847656 -30.25 27.535156 -30.789062 25.890625 -31.25 C 24.253906 -31.71875 22.457031 -31.953125 20.5 -31.953125 C 18.507812 -31.953125 17.046875 -31.675781 16.109375 -31.125 C 15.179688 -30.570312 14.71875 -29.875 14.71875 -29.03125 C 14.71875 -28.363281 15.003906 -27.816406 15.578125 -27.390625 C 16.148438 -26.972656 17.015625 -26.585938 18.171875 -26.234375 L 21.703125 -25.09375 C 25.878906 -23.769531 29.085938 -22.070312 31.328125 -20 C 33.566406 -17.9375 34.6875 -15.128906 34.6875 -11.578125 C 34.6875 -7.804688 33.195312 -4.753906 30.21875 -2.421875 C 27.25 -0.0976562 22.878906 1.0625 17.109375 1.0625 C 15.066406 1.0625 13.164062 0.894531 11.40625 0.5625 C 9.65625 0.226562 8.125 -0.253906 6.8125 -0.890625 C 5.507812 -1.535156 4.488281 -2.335938 3.75 -3.296875 C 3.019531 -4.253906 2.65625 -5.351562 2.65625 -6.59375 C 2.65625 -7.875 3.03125 -8.96875 3.78125 -9.875 C 4.539062 -10.789062 5.367188 -11.492188 6.265625 -11.984375 C 7.503906 -11.003906 9.019531 -10.160156 10.8125 -9.453125 C 12.613281 -8.742188 14.582031 -8.390625 16.71875 -8.390625 C 18.882812 -8.390625 20.410156 -8.722656 21.296875 -9.390625 C 22.191406 -10.054688 22.640625 -10.832031 22.640625 -11.71875 C 22.640625 -12.601562 22.28125 -13.28125 21.5625 -13.75 C 20.851562 -14.21875 19.859375 -14.671875 18.578125 -15.109375 Z M 15.78125 -16.046875 "/></g></g></g><g fill="#0257a2" fill-opacity="1"><g transform="translate(53.782633, 307.21737)"><g><path d="M 19.4375 -21.640625 C 21.300781 -21.640625 22.734375 -22.070312 23.734375 -22.9375 C 24.734375 -23.800781 25.234375 -25.117188 25.234375 -26.890625 C 25.234375 -28.578125 24.710938 -29.875 23.671875 -30.78125 C 22.628906 -31.695312 21.109375 -32.15625 19.109375 -32.15625 C 18.398438 -32.15625 17.8125 -32.144531 17.34375 -32.125 C 16.875 -32.101562 16.394531 -32.046875 15.90625 -31.953125 L 15.90625 -21.640625 Z M 15.984375 -0.265625 C 15.492188 -0.128906 14.726562 0 13.6875 0.125 C 12.644531 0.257812 11.609375 0.328125 10.578125 0.328125 C 9.554688 0.328125 8.65625 0.25 7.875 0.09375 C 7.101562 -0.0625 6.453125 -0.335938 5.921875 -0.734375 C 5.390625 -1.128906 4.988281 -1.679688 4.71875 -2.390625 C 4.457031 -3.109375 4.328125 -4.039062 4.328125 -5.1875 L 4.328125 -36.546875 C 4.328125 -37.484375 4.582031 -38.207031 5.09375 -38.71875 C 5.601562 -39.226562 6.300781 -39.640625 7.1875 -39.953125 C 8.695312 -40.484375 10.414062 -40.867188 12.34375 -41.109375 C 14.28125 -41.359375 16.222656 -41.484375 18.171875 -41.484375 C 24.296875 -41.484375 28.976562 -40.171875 32.21875 -37.546875 C 35.457031 -34.929688 37.078125 -31.378906 37.078125 -26.890625 C 37.078125 -24.722656 36.734375 -22.757812 36.046875 -21 C 35.359375 -19.25 34.335938 -17.738281 32.984375 -16.46875 C 31.628906 -15.207031 29.921875 -14.234375 27.859375 -13.546875 C 25.796875 -12.859375 23.410156 -12.515625 20.703125 -12.515625 L 15.984375 -12.515625 Z M 15.984375 -0.265625 "/></g></g></g><g fill="#0257a2" fill-opacity="1"><g transform="translate(92.458257, 307.21737)"><g><path d="M 12.921875 -39.140625 C 13.671875 -39.585938 14.8125 -40.007812 16.34375 -40.40625 C 17.875 -40.8125 19.414062 -41.015625 20.96875 -41.015625 C 23.1875 -41.015625 25.148438 -40.691406 26.859375 -40.046875 C 28.566406 -39.398438 29.664062 -38.390625 30.15625 -37.015625 C 30.957031 -34.710938 31.820312 -32.03125 32.75 -28.96875 C 33.6875 -25.90625 34.617188 -22.738281 35.546875 -19.46875 C 36.484375 -16.207031 37.394531 -12.988281 38.28125 -9.8125 C 39.164062 -6.644531 39.941406 -3.835938 40.609375 -1.390625 C 40.078125 -0.773438 39.28125 -0.28125 38.21875 0.09375 C 37.15625 0.476562 35.890625 0.671875 34.421875 0.671875 C 33.359375 0.671875 32.457031 0.582031 31.71875 0.40625 C 30.988281 0.226562 30.390625 -0.0351562 29.921875 -0.390625 C 29.460938 -0.753906 29.085938 -1.222656 28.796875 -1.796875 C 28.503906 -2.367188 28.25 -3.035156 28.03125 -3.796875 L 26.828125 -8.390625 L 14.78125 -8.390625 C 14.425781 -7.054688 14.070312 -5.675781 13.71875 -4.25 C 13.363281 -2.832031 13.007812 -1.460938 12.65625 -0.140625 C 12.03125 0.0859375 11.375 0.28125 10.6875 0.4375 C 10 0.59375 9.164062 0.671875 8.1875 0.671875 C 5.925781 0.671875 4.25 0.28125 3.15625 -0.5 C 2.070312 -1.28125 1.53125 -2.359375 1.53125 -3.734375 C 1.53125 -4.347656 1.617188 -4.96875 1.796875 -5.59375 C 1.972656 -6.21875 2.171875 -6.953125 2.390625 -7.796875 C 2.703125 -8.992188 3.132812 -10.476562 3.6875 -12.25 C 4.25 -14.019531 4.863281 -15.9375 5.53125 -18 C 6.195312 -20.070312 6.90625 -22.191406 7.65625 -24.359375 C 8.40625 -26.535156 9.113281 -28.585938 9.78125 -30.515625 C 10.445312 -32.453125 11.054688 -34.175781 11.609375 -35.6875 C 12.171875 -37.195312 12.609375 -38.347656 12.921875 -39.140625 Z M 20.90625 -30.5625 C 20.28125 -28.695312 19.578125 -26.617188 18.796875 -24.328125 C 18.023438 -22.046875 17.332031 -19.726562 16.71875 -17.375 L 24.96875 -17.375 C 24.34375 -19.769531 23.707031 -22.109375 23.0625 -24.390625 C 22.425781 -26.679688 21.84375 -28.738281 21.3125 -30.5625 Z M 20.90625 -30.5625 "/></g></g></g><g fill="#0257a2" fill-opacity="1"><g transform="translate(134.19598, 307.21737)"><g><path d="M 15.90625 -13.046875 L 15.90625 -0.265625 C 15.425781 -0.128906 14.660156 0 13.609375 0.125 C 12.566406 0.257812 11.535156 0.328125 10.515625 0.328125 C 9.492188 0.328125 8.59375 0.25 7.8125 0.09375 C 7.039062 -0.0625 6.398438 -0.335938 5.890625 -0.734375 C 5.378906 -1.128906 4.988281 -1.679688 4.71875 -2.390625 C 4.457031 -3.109375 4.328125 -4.039062 4.328125 -5.1875 L 4.328125 -36.546875 C 4.328125 -37.484375 4.582031 -38.207031 5.09375 -38.71875 C 5.601562 -39.226562 6.300781 -39.640625 7.1875 -39.953125 C 8.695312 -40.484375 10.453125 -40.867188 12.453125 -41.109375 C 14.453125 -41.359375 16.582031 -41.484375 18.84375 -41.484375 C 24.96875 -41.484375 29.582031 -40.191406 32.6875 -37.609375 C 35.789062 -35.035156 37.34375 -31.550781 37.34375 -27.15625 C 37.34375 -24.40625 36.632812 -22.050781 35.21875 -20.09375 C 33.800781 -18.144531 32.113281 -16.640625 30.15625 -15.578125 C 31.757812 -13.398438 33.335938 -11.359375 34.890625 -9.453125 C 36.441406 -7.546875 37.660156 -5.816406 38.546875 -4.265625 C 38.109375 -2.710938 37.300781 -1.523438 36.125 -0.703125 C 34.945312 0.117188 33.625 0.53125 32.15625 0.53125 C 31.175781 0.53125 30.332031 0.414062 29.625 0.1875 C 28.914062 -0.03125 28.296875 -0.335938 27.765625 -0.734375 C 27.234375 -1.128906 26.742188 -1.613281 26.296875 -2.1875 C 25.847656 -2.769531 25.425781 -3.394531 25.03125 -4.0625 L 19.4375 -13.046875 Z M 20.109375 -21.90625 C 21.796875 -21.90625 23.125 -22.335938 24.09375 -23.203125 C 25.070312 -24.066406 25.5625 -25.34375 25.5625 -27.03125 C 25.5625 -28.71875 25.015625 -29.992188 23.921875 -30.859375 C 22.835938 -31.722656 21.125 -32.15625 18.78125 -32.15625 C 18.113281 -32.15625 17.578125 -32.132812 17.171875 -32.09375 C 16.773438 -32.050781 16.332031 -31.984375 15.84375 -31.890625 L 15.84375 -21.90625 Z M 20.109375 -21.90625 "/></g></g></g><g fill="#0257a2" fill-opacity="1"><g transform="translate(174.735491, 307.21737)"><g><path d="M 16.046875 -14.984375 L 16.046875 -0.265625 C 15.554688 -0.128906 14.78125 0 13.71875 0.125 C 12.65625 0.257812 11.609375 0.328125 10.578125 0.328125 C 9.554688 0.328125 8.65625 0.25 7.875 0.09375 C 7.101562 -0.0625 6.453125 -0.335938 5.921875 -0.734375 C 5.390625 -1.128906 4.988281 -1.679688 4.71875 -2.390625 C 4.457031 -3.109375 4.328125 -4.039062 4.328125 -5.1875 L 4.328125 -40.34375 C 4.816406 -40.4375 5.59375 -40.5625 6.65625 -40.71875 C 7.71875 -40.875 8.738281 -40.953125 9.71875 -40.953125 C 10.738281 -40.953125 11.632812 -40.875 12.40625 -40.71875 C 13.1875 -40.5625 13.84375 -40.28125 14.375 -39.875 C 14.914062 -39.476562 15.316406 -38.925781 15.578125 -38.21875 C 15.847656 -37.507812 15.984375 -36.578125 15.984375 -35.421875 L 15.984375 -24.828125 L 29.828125 -40.75 C 32.847656 -40.75 35.007812 -40.179688 36.3125 -39.046875 C 37.625 -37.910156 38.28125 -36.566406 38.28125 -35.015625 C 38.28125 -33.867188 37.988281 -32.78125 37.40625 -31.75 C 36.832031 -30.726562 35.90625 -29.578125 34.625 -28.296875 L 26.296875 -19.96875 C 27.410156 -18.726562 28.566406 -17.441406 29.765625 -16.109375 C 30.960938 -14.773438 32.160156 -13.472656 33.359375 -12.203125 C 34.554688 -10.941406 35.6875 -9.734375 36.75 -8.578125 C 37.8125 -7.429688 38.765625 -6.4375 39.609375 -5.59375 C 39.609375 -4.613281 39.429688 -3.742188 39.078125 -2.984375 C 38.722656 -2.234375 38.242188 -1.59375 37.640625 -1.0625 C 37.046875 -0.53125 36.367188 -0.132812 35.609375 0.125 C 34.859375 0.394531 34.0625 0.53125 33.21875 0.53125 C 31.40625 0.53125 29.921875 0.078125 28.765625 -0.828125 C 27.609375 -1.742188 26.5 -2.820312 25.4375 -4.0625 Z M 16.046875 -14.984375 "/></g></g></g><g fill="#25272d" fill-opacity="1"><g transform="translate(215.67758, 307.21737)"><g><path d="M 3.265625 -12.390625 C 2.953125 -12.867188 2.660156 -13.507812 2.390625 -14.3125 C 2.128906 -15.113281 2 -15.957031 2 -16.84375 C 2 -18.488281 2.375 -19.675781 3.125 -20.40625 C 3.882812 -21.132812 4.863281 -21.5 6.0625 -21.5 L 20.3125 -21.5 C 20.570312 -21.007812 20.847656 -20.363281 21.140625 -19.5625 C 21.429688 -18.769531 21.578125 -17.929688 21.578125 -17.046875 C 21.578125 -15.398438 21.195312 -14.210938 20.4375 -13.484375 C 19.6875 -12.753906 18.710938 -12.390625 17.515625 -12.390625 Z M 3.265625 -12.390625 "/></g></g></g><g fill="#edde07" fill-opacity="1"><g transform="translate(239.250613, 307.21737)"><g><path d="M 19.4375 -21.640625 C 21.300781 -21.640625 22.734375 -22.070312 23.734375 -22.9375 C 24.734375 -23.800781 25.234375 -25.117188 25.234375 -26.890625 C 25.234375 -28.578125 24.710938 -29.875 23.671875 -30.78125 C 22.628906 -31.695312 21.109375 -32.15625 19.109375 -32.15625 C 18.398438 -32.15625 17.8125 -32.144531 17.34375 -32.125 C 16.875 -32.101562 16.394531 -32.046875 15.90625 -31.953125 L 15.90625 -21.640625 Z M 15.984375 -0.265625 C 15.492188 -0.128906 14.726562 0 13.6875 0.125 C 12.644531 0.257812 11.609375 0.328125 10.578125 0.328125 C 9.554688 0.328125 8.65625 0.25 7.875 0.09375 C 7.101562 -0.0625 6.453125 -0.335938 5.921875 -0.734375 C 5.390625 -1.128906 4.988281 -1.679688 4.71875 -2.390625 C 4.457031 -3.109375 4.328125 -4.039062 4.328125 -5.1875 L 4.328125 -36.546875 C 4.328125 -37.484375 4.582031 -38.207031 5.09375 -38.71875 C 5.601562 -39.226562 6.300781 -39.640625 7.1875 -39.953125 C 8.695312 -40.484375 10.414062 -40.867188 12.34375 -41.109375 C 14.28125 -41.359375 16.222656 -41.484375 18.171875 -41.484375 C 24.296875 -41.484375 28.976562 -40.171875 32.21875 -37.546875 C 35.457031 -34.929688 37.078125 -31.378906 37.078125 -26.890625 C 37.078125 -24.722656 36.734375 -22.757812 36.046875 -21 C 35.359375 -19.25 34.335938 -17.738281 32.984375 -16.46875 C 31.628906 -15.207031 29.921875 -14.234375 27.859375 -13.546875 C 25.796875 -12.859375 23.410156 -12.515625 20.703125 -12.515625 L 15.984375 -12.515625 Z M 15.984375 -0.265625 "/></g></g></g><g fill="#edde07" fill-opacity="1"><g transform="translate(277.926236, 307.21737)"><g><path d="M 12.921875 -39.140625 C 13.671875 -39.585938 14.8125 -40.007812 16.34375 -40.40625 C 17.875 -40.8125 19.414062 -41.015625 20.96875 -41.015625 C 23.1875 -41.015625 25.148438 -40.691406 26.859375 -40.046875 C 28.566406 -39.398438 29.664062 -38.390625 30.15625 -37.015625 C 30.957031 -34.710938 31.820312 -32.03125 32.75 -28.96875 C 33.6875 -25.90625 34.617188 -22.738281 35.546875 -19.46875 C 36.484375 -16.207031 37.394531 -12.988281 38.28125 -9.8125 C 39.164062 -6.644531 39.941406 -3.835938 40.609375 -1.390625 C 40.078125 -0.773438 39.28125 -0.28125 38.21875 0.09375 C 37.15625 0.476562 35.890625 0.671875 34.421875 0.671875 C 33.359375 0.671875 32.457031 0.582031 31.71875 0.40625 C 30.988281 0.226562 30.390625 -0.0351562 29.921875 -0.390625 C 29.460938 -0.753906 29.085938 -1.222656 28.796875 -1.796875 C 28.503906 -2.367188 28.25 -3.035156 28.03125 -3.796875 L 26.828125 -8.390625 L 14.78125 -8.390625 C 14.425781 -7.054688 14.070312 -5.675781 13.71875 -4.25 C 13.363281 -2.832031 13.007812 -1.460938 12.65625 -0.140625 C 12.03125 0.0859375 11.375 0.28125 10.6875 0.4375 C 10 0.59375 9.164062 0.671875 8.1875 0.671875 C 5.925781 0.671875 4.25 0.28125 3.15625 -0.5 C 2.070312 -1.28125 1.53125 -2.359375 1.53125 -3.734375 C 1.53125 -4.347656 1.617188 -4.96875 1.796875 -5.59375 C 1.972656 -6.21875 2.171875 -6.953125 2.390625 -7.796875 C 2.703125 -8.992188 3.132812 -10.476562 3.6875 -12.25 C 4.25 -14.019531 4.863281 -15.9375 5.53125 -18 C 6.195312 -20.070312 6.90625 -22.191406 7.65625 -24.359375 C 8.40625 -26.535156 9.113281 -28.585938 9.78125 -30.515625 C 10.445312 -32.453125 11.054688 -34.175781 11.609375 -35.6875 C 12.171875 -37.195312 12.609375 -38.347656 12.921875 -39.140625 Z M 20.90625 -30.5625 C 20.28125 -28.695312 19.578125 -26.617188 18.796875 -24.328125 C 18.023438 -22.046875 17.332031 -19.726562 16.71875 -17.375 L 24.96875 -17.375 C 24.34375 -19.769531 23.707031 -22.109375 23.0625 -24.390625 C 22.425781 -26.679688 21.84375 -28.738281 21.3125 -30.5625 Z M 20.90625 -30.5625 "/></g></g></g><g fill="#edde07" fill-opacity="1"><g transform="translate(319.663959, 307.21737)"><g><path d="M 25.5 -0.265625 C 25.007812 -0.128906 24.253906 0 23.234375 0.125 C 22.210938 0.257812 21.210938 0.328125 20.234375 0.328125 C 18.191406 0.328125 16.660156 -0.015625 15.640625 -0.703125 C 14.617188 -1.390625 14.109375 -2.84375 14.109375 -5.0625 L 14.109375 -14.046875 C 13.003906 -15.691406 11.804688 -17.507812 10.515625 -19.5 C 9.234375 -21.5 7.96875 -23.539062 6.71875 -25.625 C 5.476562 -27.71875 4.328125 -29.773438 3.265625 -31.796875 C 2.203125 -33.816406 1.335938 -35.664062 0.671875 -37.34375 C 1.242188 -38.144531 2.03125 -38.878906 3.03125 -39.546875 C 4.03125 -40.210938 5.257812 -40.546875 6.71875 -40.546875 C 8.457031 -40.546875 9.867188 -40.191406 10.953125 -39.484375 C 12.035156 -38.773438 13.066406 -37.441406 14.046875 -35.484375 L 19.578125 -24.375 L 19.96875 -24.375 C 20.59375 -25.75 21.132812 -27 21.59375 -28.125 C 22.0625 -29.257812 22.519531 -30.390625 22.96875 -31.515625 C 23.414062 -32.648438 23.878906 -33.828125 24.359375 -35.046875 C 24.847656 -36.273438 25.40625 -37.6875 26.03125 -39.28125 C 26.832031 -39.675781 27.71875 -39.984375 28.6875 -40.203125 C 29.664062 -40.429688 30.597656 -40.546875 31.484375 -40.546875 C 33.046875 -40.546875 34.367188 -40.132812 35.453125 -39.3125 C 36.535156 -38.488281 37.078125 -37.257812 37.078125 -35.625 C 37.078125 -35.09375 36.96875 -34.445312 36.75 -33.6875 C 36.53125 -32.9375 36.019531 -31.796875 35.21875 -30.265625 C 34.414062 -28.734375 33.25 -26.65625 31.71875 -24.03125 C 30.1875 -21.414062 28.113281 -18 25.5 -13.78125 Z M 25.5 -0.265625 "/></g></g></g></svg>