<svg xmlns="http://www.w3.org/2000/svg" xmlns:xlink="http://www.w3.org/1999/xlink" width="500" zoomAndPan="magnify" viewBox="0 0 375 299.999988" height="400" preserveAspectRatio="xMidYMid meet" version="1.0"><defs><clipPath id="127e3a439f"><path d="M 141 133 L 233.171875 133 L 233.171875 286 L 141 286 Z M 141 133 " clip-rule="nonzero"/></clipPath></defs><path stroke-linecap="round" transform="matrix(0.752063, 0, 0, 0.75, 272.816529, 197.635678)" fill="none" stroke-linejoin="miter" d="M 15.997497 16.001389 L 114.648008 16.001389 " stroke="#edde07" stroke-width="32" stroke-opacity="1" stroke-miterlimit="4"/><path stroke-linecap="round" transform="matrix(0.751988, 0, 0, 0.75, 4.199162, 197.635678)" fill="none" stroke-linejoin="miter" d="M 15.999326 16.001389 L 113.66748 16.001389 " stroke="#edde07" stroke-width="32" stroke-opacity="1" stroke-miterlimit="4"/><path stroke-linecap="round" transform="matrix(0.679083, -0.317286, 0.317477, 0.679491, 263.039283, 155.233142)" fill="none" stroke-linejoin="miter" d="M 16.000765 15.998775 L 114.080697 16.002067 " stroke="#edde07" stroke-width="32" stroke-opacity="1" stroke-miterlimit="4"/><path stroke-linecap="round" transform="matrix(0.678019, 0.316166, -0.316964, 0.679731, 21.534115, 113.91648)" fill="none" stroke-linejoin="miter" d="M 16.002226 16.000051 L 114.328705 15.99782 " stroke="#edde07" stroke-width="32" stroke-opacity="1" stroke-miterlimit="4"/><path stroke-linecap="round" transform="matrix(0.481454, -0.573775, 0.574533, 0.482091, 232.243597, 119.524202)" fill="none" stroke-linejoin="miter" d="M 15.999688 16.0024 L 114.182795 16.000425 " stroke="#edde07" stroke-width="32" stroke-opacity="1" stroke-miterlimit="4"/><path stroke-linecap="round" transform="matrix(0.481801, 0.574188, -0.574533, 0.482091, 79.286003, 44.792296)" fill="none" stroke-linejoin="miter" d="M 15.997327 16.000381 L 114.076371 16.001579 " stroke="#edde07" stroke-width="32" stroke-opacity="1" stroke-miterlimit="4"/><path stroke-linecap="round" transform="matrix(0.000000000000000544, -0.748241, 0.75, 0.000000000000000546, 175.117436, 98.317206)" fill="none" stroke-linejoin="miter" d="M 16.002137 15.999671 L 97.270853 15.999671 " stroke="#edde07" stroke-width="32" stroke-opacity="1" stroke-miterlimit="4"/><g clip-path="url(#127e3a439f)"><path fill="#0257a2" d="M 180.121094 285.570312 L 193.609375 285.570312 C 196.667969 285.570312 199.183594 283.054688 199.183594 279.996094 L 199.183594 267.050781 L 202.0625 266.332031 C 224.898438 260.578125 233.171875 244.753906 233.171875 233.066406 C 233.171875 211.308594 214.46875 202.320312 196.125 196.386719 C 178.863281 190.632812 173.46875 187.214844 173.46875 182.179688 C 173.46875 177.683594 178.683594 173.011719 190.550781 173.011719 C 203.5 173.011719 211.773438 176.785156 215.1875 178.40625 C 215.90625 178.765625 216.808594 178.945312 217.527344 178.945312 C 219.683594 178.945312 221.660156 177.683594 222.5625 175.707031 L 227.957031 164.378906 C 228.675781 163.121094 228.675781 161.503906 228.136719 160.0625 C 227.597656 158.625 226.515625 157.546875 225.257812 156.828125 C 218.785156 153.769531 211.773438 151.792969 203.859375 150.894531 L 200.621094 150.535156 L 200.621094 139.027344 C 200.621094 135.96875 198.105469 133.453125 195.046875 133.453125 L 181.742188 133.453125 C 178.683594 133.453125 176.167969 135.96875 176.167969 139.027344 L 176.167969 151.613281 L 173.289062 152.332031 C 154.585938 157.007812 143.617188 168.875 143.617188 183.976562 C 143.617188 203.9375 163.398438 212.929688 182.820312 219.042969 C 200.800781 224.796875 203.140625 230.011719 203.140625 234.144531 C 203.140625 240.617188 194.6875 245.292969 183.179688 245.292969 C 173.289062 245.292969 162.859375 242.777344 154.945312 238.640625 C 154.046875 238.28125 153.148438 237.921875 152.25 237.921875 C 151.710938 237.921875 150.992188 238.101562 150.453125 238.28125 C 149.011719 238.820312 147.753906 239.898438 147.214844 241.339844 L 142 252.847656 C 140.921875 255.542969 141.820312 258.601562 144.335938 260.039062 C 150.8125 263.816406 160.703125 266.691406 170.953125 267.769531 L 174.367188 268.128906 L 174.367188 279.996094 C 174.367188 283.054688 176.886719 285.570312 180.121094 285.570312 Z M 180.121094 285.570312 " fill-opacity="1" fill-rule="nonzero"/></g></svg>